<?xml version="1.0" encoding="utf-8"?>
<!-- Generator: Adobe Illustrator 16.0.4, SVG Export Plug-In . SVG Version: 6.00 Build 0)  -->
<!DOCTYPE svg PUBLIC "-//W3C//DTD SVG 1.1//EN" "http://www.w3.org/Graphics/SVG/1.1/DTD/svg11.dtd">
<svg version="1.1" id="Layer_1" xmlns="http://www.w3.org/2000/svg" xmlns:xlink="http://www.w3.org/1999/xlink" x="0px" y="0px"
	 width="100px" height="100px" viewBox="0 0 100 100" enable-background="new 0 0 100 100" xml:space="preserve">
<g>
	<g>
		<circle cx="46.423" cy="49.6" r="38.167"/>
		<g>
			<path d="M10.722,49.19c0.368-20.422,16.923-38.736,38.187-36.818c19.085,1.722,32.883,19.152,33.216,37.639
				c0.368,20.47-17.516,38.685-38.187,36.819C24.853,85.107,11.055,67.677,10.722,49.19c-0.012-0.696-4.951-0.257-4.932,0.82
				c0.403,22.417,18.827,38.854,40.873,38.458c20.71-0.373,38.414-15.663,40.293-36.491c1.969-21.831-16.47-40.855-37.976-41.243
				C28.287,10.361,9.611,23.485,6.186,44.493c-0.297,1.823-0.362,3.674-0.396,5.517C5.778,50.654,10.702,50.309,10.722,49.19z"/>
		</g>
	</g>
	<path fill="#FFFFFF" d="M41.416,49.285l-2.264,0.67L39.14,51.77c0,0-1.412,1.984-2.046,0.572c0,0-0.362-1.851,0.343-2.825
		l0.104-0.167c0,0-0.617-0.528-2.69,0.073l-0.205,0.237c0,0-3.444-1.142-5.783,1.708c0,0-1.096,1.485,0.292,2.557
		c1.39,1.071,4.408,0.487,5.237-0.438c0,0,0.779,1.121,2.776,0.781c0,0,0.828,0.023,1.996-0.514v6.868c0,0,1.414,0.415,2.851-0.56
		v-5.896c0,0,4.213-0.498,4.408-2.824C46.422,51.344,46.409,47.605,41.416,49.285z M34.342,51.88c0,0-0.765,1.505-1.868,1.183
		c-0.037-0.011-0.074-0.022-0.111-0.039c-1.162-0.461-1.711-1.68,0-2.336c0,0,0.761-0.269,2.102-0.195
		C34.464,50.491,34.158,51.186,34.342,51.88z M43.791,51.695c-0.341,1.668-2.143,0.914-2.143,0.914v-2.131
		C43.767,49.759,43.791,51.695,43.791,51.695z"/>
	<g>
		<path fill="#FFFFFF" d="M48.979,47.38c0,0-1.218,0.317-0.827,0.828c0,0,0.146,0.292,1.437,0l1.144-0.305
			c0,0,0.425-0.66-0.39-0.714c-0.037-0.002-0.078-0.006-0.121-0.004C49.371,47.223,48.979,47.38,48.979,47.38z"/>
		<path fill="#FFFFFF" d="M94.1,51.781l-11.373,0.535l-9.256,0.635c0,0-1.225,0.115-1.4-0.635l-0.207-0.656
			c0,0,1.803-1.949,2.423-4.579c0.622-2.63,0.657-3.945-0.476-5.37c-1.131-1.425-3.726-0.621-4.676,1.242
			c0,0-1.169,2.301-0.656,6.685c0,0,0.14,1.31,0.612,2.281c0,0-0.298,0.447-0.784,0.447s-1.34-1.461-1.314-2.582
			c0,0,0.097-0.568,0.08-0.664c-0.02-0.107-0.78-0.158-0.78-0.158s-1.175-0.028-1.235,0c-0.062,0.027-0.086,0.228-0.086,0.228
			s-2.41-1.013-4.041,0.594c0,0-1.535,1.267-0.781,2.532c0,0-0.449,0.477-3.115,0.707c0,0-0.829-0.563-0.828-1.584l-0.051-1.484
			l2.438-0.365c0,0,0.561-0.609,0.243-1.071l-2.728,0.35c0,0,0.194-4.125,0.607-4.588c0,0-1.738-0.626-2.593,0.068
			c-0.021,0.017-0.041,0.035-0.062,0.054c-0.828,0.779-0.608,4.466-0.608,4.466l-0.015,0.333l-1.203,0.268
			c0,0-0.391,0.633,0.072,0.803c0.463,0.171,1.045,0.037,1.045,0.037s0.015,1.409,0.166,1.938c0,0-2.088,0.997-3.208,0.583
			c0,0-1.217-0.513-0.316-2.898l0.341-0.877c0,0-1.486-0.268-2.484,0.292c0,0-0.609,0.925-0.706,3.702c0,0-0.049,1.461,2.46,1.071
			l4.115-0.926c0,0,0.122,0.72,0.731,0.992c0,0,2.265,0.444,6.015-0.847c0,0,1.561,1.194,4.823-0.268c0,0,0.493,1.754,3.799,0.536
			l0.597-0.299c0,0,0.221,1.229,0.963,1.225c0,0,0.561-0.001,1.851-0.244c1.291-0.243,2.946-0.391,3.265-0.391
			c0.316,0,8.209-0.438,11.301-0.584c3.095-0.146,8.694-0.049,9.498-0.949l0.438-0.424C96.997,51.943,96.413,51.709,94.1,51.781z
			 M64.727,51.43c-2.301,2.266-2.787-0.109-2.787-0.109c-0.391-1.462,2.824-1.5,2.824-1.5C64.691,50.267,64.727,51.43,64.727,51.43z
			 M71.729,42.733c0,0,2.047,1.169-0.621,5.846C71.105,48.579,69.928,44.042,71.729,42.733z"/>
	</g>
	<path fill="#FFFFFF" d="M32.318,46.663c0.048-0.019,0.098-0.033,0.146-0.049c3.38-1.188,4.614-5.202,2.952-7.456
		c-1.688-2.286-4.55-3.019-5.688-3.105c-1.137-0.085-3.599-0.115-5.569,0.475c-1.67,0.5-2.466,1.024-3.67,1.64
		c-1.206,0.616-3.101,2.807-3.101,2.807c-2.109,2.338-4.918,7.888-3.35,13.021c1.569,5.133,6.903,5.605,6.903,5.605
		c2.079,0.303,5.452,0,5.452,0c5.569-0.731,7.609-2.199,7.609-2.199c-0.354-1.077-1.296-0.688-1.296-0.688l-1.372,0.345
		c-2.784,0.819-6.51,0.646-6.51,0.646c-4.942,0-6.512-6.383-6.512-6.383c-0.719-5.287,2.019-10.036,3.785-11.473
		c0,0,2.176-1.812,5.354-1.488c3.177,0.323,4.602,3.242,4.602,3.242s0.811,2.902-1.492,3.549
		C30.563,45.151,29.578,47.696,32.318,46.663z"/>
</g>
<g>
	<path fill="#FFFFFF" d="M49.329,56.011h1.767c0.537,0,1.416,0,1.416,0.974c0,0.966-0.879,0.966-1.416,0.966h-1.146v1.23h-0.62
		V56.011z M51.23,57.419c0.354,0,0.663-0.029,0.663-0.44c0-0.404-0.309-0.437-0.663-0.437h-1.281v0.877H51.23z"/>
	<path fill="#FFFFFF" d="M52.963,56.011h1.905c0.751,0,1.291,0.17,1.291,0.948c0,0.582-0.418,0.904-0.886,0.931l0.974,1.291h-0.764
		l-0.918-1.248h-0.982v1.248h-0.62V56.011z M54.779,57.419c0.504,0,0.762-0.074,0.762-0.447c0-0.372-0.258-0.445-0.762-0.445h-1.196
		v0.893H54.779z"/>
	<path fill="#FFFFFF" d="M56.882,56.011H57.5v3.17h-0.618V56.011z"/>
	<path fill="#FFFFFF" d="M58.29,56.011h0.655l2.118,2.288v-2.288h0.594v3.17h-0.566l-2.208-2.371v2.371H58.29V56.011z"/>
	<path fill="#FFFFFF" d="M63.538,56.542h-1.417v-0.531h3.454v0.531H64.16v2.639h-0.622V56.542z"/>
	<path fill="#FFFFFF" d="M66.038,56.011h2.843v0.531h-2.223v0.738h1.912v0.531h-1.912v0.839h2.274v0.53h-2.895V56.011z"/>
	<path fill="#FFFFFF" d="M69.434,56.011h1.903c0.752,0,1.292,0.17,1.292,0.948c0,0.582-0.419,0.904-0.886,0.931l0.974,1.291h-0.765
		l-0.919-1.248h-0.981v1.248h-0.618V56.011z M71.247,57.419c0.505,0,0.762-0.074,0.762-0.447c0-0.372-0.257-0.445-0.762-0.445
		h-1.195v0.893H71.247z"/>
	<path fill="#FFFFFF" d="M75.777,56.975c-0.099-0.284-0.354-0.527-1.109-0.527c-0.418,0-0.842,0.105-0.842,0.396
		c0,0.136,0.079,0.279,0.71,0.359l0.751,0.113c0.711,0.108,1.13,0.385,1.13,0.915c0,0.751-0.716,1.029-1.563,1.029
		c-1.358,0-1.689-0.671-1.764-0.911l0.596-0.188c0.114,0.231,0.35,0.566,1.187,0.566c0.507,0,0.925-0.164,0.925-0.44
		c0-0.204-0.234-0.339-0.688-0.396l-0.761-0.104c-0.73-0.1-1.141-0.419-1.141-0.903c0-0.95,1.233-0.95,1.478-0.95
		c1.366,0,1.601,0.633,1.681,0.851L75.777,56.975z"/>
</g>
</svg>
