<?xml version="1.0" encoding="utf-8"?>
<!-- Generator: Adobe Illustrator 16.0.4, SVG Export Plug-In . SVG Version: 6.00 Build 0)  -->
<!DOCTYPE svg PUBLIC "-//W3C//DTD SVG 1.1//EN" "http://www.w3.org/Graphics/SVG/1.1/DTD/svg11.dtd">
<svg version="1.1" id="Layer_1" xmlns="http://www.w3.org/2000/svg" xmlns:xlink="http://www.w3.org/1999/xlink" x="0px" y="0px"
	 width="200px" height="200px" viewBox="0 0 200 200" enable-background="new 0 0 200 200" xml:space="preserve">
<circle fill="#010101" cx="-90.105" cy="93.608" r="90.105"/>
<path fill="#FFFFFF" d="M99.978,101.762L161.733,57.4H38.241c-0.47,0-0.916,0.092-1.324,0.255L99.978,101.762z"/>
<g>
	<polygon fill="#FFFFFF" points="165.188,138.472 165.188,62.11 120.748,94.031 	"/>
	<polygon fill="#FFFFFF" points="38.94,142.601 161.059,142.601 115.942,97.483 100.022,108.92 83.898,97.641 	"/>
	<polygon fill="#FFFFFF" points="79.04,94.243 34.812,63.308 34.812,138.472 	"/>
</g>
<g>
	<path fill="#FFFFFF" d="M266.578-66.58c4.65,6.45,11.4,12.449,19.05,13.949v-30.898c-15.6-4.5-29.999-14.699-29.999-31.648
		c0-17.699,13.5-28.199,29.999-28.949v-9.6h11.699v9.6c12.6,2.1,21.6,8.25,28.499,15.899l-11.699,11.25
		c-4.351-5.25-9.75-9.9-16.8-10.65v27.599c16.8,6,31.799,13.949,31.799,34.198c0,18.149-14.249,29.549-31.799,29.999v17.1h-11.699
		v-17.25c-10.35,0-24.599-8.999-31.948-18.899L266.578-66.58z M285.628-128.527c-6.899,0.15-12.899,4.35-12.899,11.85
		c0,6.6,6.299,11.399,12.899,13.35V-128.527z M297.327-52.331c7.8,0,13.5-5.249,13.5-12.899c0-8.85-6.45-11.699-13.5-14.849V-52.331
		z"/>
</g>
</svg>
