<?xml version="1.0" encoding="utf-8"?>
<!-- Generator: Adobe Illustrator 16.0.4, SVG Export Plug-In . SVG Version: 6.00 Build 0)  -->
<!DOCTYPE svg PUBLIC "-//W3C//DTD SVG 1.1//EN" "http://www.w3.org/Graphics/SVG/1.1/DTD/svg11.dtd">
<svg version="1.1" id="Layer_1" xmlns="http://www.w3.org/2000/svg" xmlns:xlink="http://www.w3.org/1999/xlink" x="0px" y="0px"
	 width="200px" height="200px" viewBox="0 0 200 200" enable-background="new 0 0 200 200" xml:space="preserve">
<g>
	<path d="M162.829,78.55l-16.684-16.685V104.7l16.684-16.682C165.444,85.404,165.444,81.163,162.829,78.55z"/>
	<path d="M51.497,62.812L35.761,78.55c-2.611,2.613-2.611,6.854,0,9.468l15.736,15.731V62.812z"/>
	<path d="M132.146,47.865L104.032,19.75c-2.615-2.616-6.858-2.616-9.475,0L66.44,47.865H132.146z"/>
	<path d="M72.431,130.607l-16.92-16.921l-19.75-19.751c-0.826-0.829-1.359-1.825-1.664-2.876c-0.025,0.275-0.084,0.542-0.084,0.824
		v73.47c0,1.281,0.271,2.494,0.747,3.601C41.373,161.36,66.182,135.305,72.431,130.607z"/>
	<path d="M164.288,167.531c0.172-0.701,0.292-1.423,0.292-2.179v-73.47c0-0.284-0.058-0.551-0.084-0.828
		c-0.304,1.053-0.837,2.052-1.667,2.881l-19.746,19.742l-15.251,15.256C135.979,137.198,160.133,163.062,164.288,167.531z"/>
	<path d="M124.548,132.218l-20.516,20.516c-2.615,2.616-6.858,2.616-9.475,0l-18.872-18.872
		c-7.056,4.931-31.935,31.73-37.997,38.755c1.519,1.134,3.379,1.827,5.415,1.827h112.386c2.524,0,4.806-1.035,6.455-2.694
		C156.221,165.141,131.145,138.875,124.548,132.218z"/>
	<path d="M55.506,52.668v55.186l39.047,39.047c2.616,2.616,6.859,2.616,9.475,0l39.052-39.056V52.668H55.506z M131.331,74.296
		H67.254v-5.073h64.077V74.296z M131.331,87.78H67.254v-5.073h64.077V87.78z M131.331,101.263H67.254V96.19h64.077V101.263z
		 M131.331,114.746H67.254v-5.073h64.077V114.746z"/>
</g>
</svg>
