<?xml version="1.0" encoding="utf-8"?>
<!-- Generator: Adobe Illustrator 16.0.4, SVG Export Plug-In . SVG Version: 6.00 Build 0)  -->
<!DOCTYPE svg PUBLIC "-//W3C//DTD SVG 1.1//EN" "http://www.w3.org/Graphics/SVG/1.1/DTD/svg11.dtd">
<svg version="1.1" id="Layer_1" xmlns="http://www.w3.org/2000/svg" xmlns:xlink="http://www.w3.org/1999/xlink" x="0px" y="0px"
	 width="200px" height="200px" viewBox="0 0 200 200" enable-background="new 0 0 200 200" xml:space="preserve">
<g>
	<path d="M158.812,128.67l-27.205-43.888V68.103H112.74v11.621H84.306V68.103H65.85l0.131,1.915v15.857
		c0,0-4.372,10.631-12.062,20.884c0,0-14.727,24.237-17.327,34.485c0,0,0.138,19.826,0,27.755h126.596v-24.742
		C163.188,144.258,161.822,132.635,158.812,128.67z M83.966,128.088H73.404v-7.485h10.562V128.088z M83.966,114.503H73.404v-7.488
		h10.562V114.503z M83.966,100.916H73.404v-7.484h10.562V100.916z M102.88,128.088H92.316v-7.485h10.563V128.088z M102.88,114.503
		H92.316v-7.488h10.563V114.503z M102.88,100.916H92.316v-7.484h10.563V100.916z M121.795,128.088h-10.561v-7.485h10.561V128.088z
		 M121.795,114.503h-10.561v-7.488h10.561V114.503z M121.795,100.916h-10.561v-7.484h10.561V100.916z"/>
	<path d="M16.701,73.231c0,0,7.176-21.737,8.405-23.38c0,0,70.137-30.555,147.861,0c0,0,6.767,11.076,8.61,23.38
		c0,0-22.353,6.972-42.86-5.128c0,0,1.642-7.381-9.229-11.074c0,0-36.088-9.228-66.441,1.64c0,0-7.59,3.898-5.948,9.434
		C57.1,68.103,37.824,83.484,16.701,73.231z"/>
	<path d="M14.649,80.203c0,0-1.229,14.459,7.794,16.973c9.02,2.511,28.095,0.869,32.194-9.385c0,0,2.873-5.666,2.258-11.035
		C56.896,76.756,39.258,87.38,14.649,80.203z"/>
	<path d="M182.68,79.622c0,0,1.229,14.459-7.794,16.97c-9.024,2.511-28.095,0.869-32.196-9.384c0,0-2.871-5.664-2.256-11.034
		C140.434,76.174,158.07,86.799,182.68,79.622z"/>
</g>
</svg>
