<?xml version="1.0" encoding="utf-8"?>
<!-- Generator: Adobe Illustrator 16.0.4, SVG Export Plug-In . SVG Version: 6.00 Build 0)  -->
<!DOCTYPE svg PUBLIC "-//W3C//DTD SVG 1.1//EN" "http://www.w3.org/Graphics/SVG/1.1/DTD/svg11.dtd">
<svg version="1.1" id="Layer_1" xmlns="http://www.w3.org/2000/svg" xmlns:xlink="http://www.w3.org/1999/xlink" x="0px" y="0px"
	 width="200px" height="200px" viewBox="0 0 200 200" enable-background="new 0 0 200 200" xml:space="preserve">
<circle fill="#010101" cx="-90.105" cy="93.608" r="90.105"/>
<path fill="#FFFFFF" d="M361.312,75.328l61.756-44.361H299.576c-0.47,0-0.916,0.092-1.324,0.255L361.312,75.328z"/>
<g>
	<polygon fill="#FFFFFF" points="426.522,112.038 426.522,35.676 382.083,67.598 	"/>
	<polygon fill="#FFFFFF" points="300.275,116.167 422.394,116.167 377.277,71.05 361.357,82.486 345.233,71.207 	"/>
	<polygon fill="#FFFFFF" points="340.375,67.809 296.146,36.874 296.146,112.038 	"/>
</g>
<g>
	<path fill="#FFFFFF" d="M73.912,115.757c4.65,6.45,11.399,12.449,19.049,13.949V98.808c-15.6-4.5-29.999-14.699-29.999-31.648
		c0-17.699,13.5-28.199,29.999-28.949v-9.6h11.699v9.6c12.6,2.1,21.6,8.25,28.499,15.899l-11.699,11.25
		c-4.351-5.25-9.75-9.9-16.8-10.65v27.599c16.8,6,31.799,13.949,31.799,34.198c0,18.149-14.249,29.549-31.799,29.999v17.1H92.961
		v-17.25c-10.35,0-24.599-8.999-31.949-18.899L73.912,115.757z M92.961,53.81c-6.9,0.15-12.9,4.35-12.9,11.85
		c0,6.6,6.3,11.399,12.9,13.35V53.81z M104.66,130.006c7.8,0,13.5-5.249,13.5-12.899c0-8.85-6.45-11.699-13.5-14.849V130.006z"/>
</g>
</svg>
