<?xml version="1.0" encoding="utf-8"?>
<!-- Generator: Adobe Illustrator 16.0.4, SVG Export Plug-In . SVG Version: 6.00 Build 0)  -->
<!DOCTYPE svg PUBLIC "-//W3C//DTD SVG 1.1//EN" "http://www.w3.org/Graphics/SVG/1.1/DTD/svg11.dtd">
<svg version="1.1" id="Layer_1" xmlns="http://www.w3.org/2000/svg" xmlns:xlink="http://www.w3.org/1999/xlink" x="0px" y="0px"
	 width="200px" height="200px" viewBox="0 0 200 200" enable-background="new 0 0 200 200" xml:space="preserve">
<g>
	<path fill="#FFFFFF" d="M50.576,71.341c-1.758-0.117-3.581-0.227-5.402-0.361c-1.517-0.113-2.519-1.18-2.529-2.697
		c-0.013-1.827-0.013-3.654,0-5.48c0.01-1.552,1.018-2.604,2.58-2.712c1.821-0.127,3.642-0.242,5.34-0.354
		c0.672-1.504,1.322-2.92,1.925-4.357c0.071-0.166-0.041-0.494-0.179-0.649c-1.052-1.187-2.131-2.351-3.205-3.522
		c-1.197-1.308-1.173-2.778,0.083-4.047c1.177-1.191,2.36-2.377,3.55-3.555c1.329-1.314,2.769-1.344,4.15-0.089
		c1.144,1.039,2.288,2.076,3.409,3.136c0.295,0.279,0.505,0.323,0.892,0.14c1.351-0.634,2.73-1.21,4.17-1.838
		c0.115-1.741,0.228-3.583,0.361-5.426c0.108-1.483,1.156-2.492,2.645-2.511c1.848-0.024,3.697-0.023,5.545-0.002
		c1.533,0.017,2.58,1.008,2.694,2.532c0.135,1.82,0.242,3.644,0.358,5.395c1.506,0.669,2.961,1.33,4.431,1.952
		c0.132,0.058,0.402-0.059,0.537-0.178c1.133-1.015,2.252-2.049,3.374-3.077c1.542-1.415,2.92-1.395,4.387,0.069
		c1.14,1.137,2.278,2.273,3.413,3.416c1.314,1.323,1.331,2.76,0.062,4.143c-1.057,1.154-2.104,2.318-3.176,3.46
		c-0.25,0.265-0.262,0.46-0.112,0.793c0.56,1.246,1.089,2.505,1.582,3.779c0.135,0.348,0.298,0.448,0.646,0.468
		c1.692,0.093,3.387,0.208,5.078,0.328c1.462,0.104,2.484,1.182,2.499,2.661c0.018,1.848,0.018,3.697,0,5.546
		c-0.014,1.514-1.019,2.568-2.548,2.681c-1.691,0.126-3.384,0.239-5.076,0.333c-0.333,0.019-0.47,0.138-0.591,0.447
		c-0.503,1.268-1.021,2.533-1.584,3.774c-0.167,0.368-0.115,0.569,0.142,0.843c1.073,1.142,2.128,2.3,3.18,3.459
		c1.234,1.361,1.202,2.791-0.092,4.094c-1.211,1.219-2.425,2.435-3.647,3.641c-1.188,1.175-2.662,1.203-3.896,0.083
		c-1.174-1.068-2.36-2.125-3.506-3.222c-0.352-0.338-0.606-0.312-1.017-0.125c-1.202,0.547-2.427,1.046-3.66,1.524
		c-0.317,0.122-0.427,0.268-0.445,0.596c-0.096,1.693-0.208,3.386-0.332,5.077c-0.117,1.555-1.189,2.544-2.746,2.547
		c-1.806,0.005-3.612,0.008-5.417,0c-1.548-0.005-2.616-1.005-2.728-2.566c-0.122-1.691-0.239-3.383-0.331-5.075
		c-0.02-0.344-0.16-0.463-0.465-0.583c-1.229-0.482-2.457-0.976-3.655-1.53c-0.428-0.198-0.675-0.17-1.013,0.15
		c-1.134,1.081-2.301,2.125-3.46,3.178c-1.27,1.156-2.729,1.136-3.944-0.066c-1.222-1.207-2.437-2.422-3.646-3.644
		c-1.288-1.299-1.31-2.727-0.067-4.093c1.068-1.175,2.151-2.335,3.202-3.526c0.13-0.145,0.199-0.474,0.127-0.648
		C51.872,74.232,51.235,72.832,50.576,71.341z M71.132,78.272c7.055,0.012,12.749-5.647,12.772-12.688
		c0.022-7.005-5.633-12.766-12.541-12.78c-7.233-0.015-12.929,5.582-12.935,12.712C58.42,72.569,64.09,78.261,71.132,78.272z"/>
</g>
<g>
	<path fill="#FFFFFF" d="M85.266,135.888c-2.394-0.158-4.877-0.31-7.358-0.49c-2.066-0.154-3.431-1.608-3.446-3.675
		c-0.02-2.489-0.019-4.979,0-7.466c0.016-2.115,1.386-3.549,3.518-3.696c2.479-0.174,4.96-0.329,7.275-0.481
		c0.916-2.051,1.8-3.983,2.623-5.938c0.095-0.226-0.055-0.672-0.244-0.882c-1.433-1.621-2.906-3.208-4.367-4.802
		c-1.633-1.781-1.6-3.784,0.115-5.515c1.604-1.619,3.214-3.238,4.835-4.842c1.81-1.792,3.772-1.831,5.654-0.121
		c1.557,1.414,3.117,2.828,4.644,4.273c0.401,0.379,0.689,0.439,1.214,0.191c1.842-0.866,3.722-1.65,5.684-2.505
		c0.156-2.372,0.31-4.884,0.491-7.393c0.147-2.022,1.575-3.396,3.604-3.423c2.52-0.033,5.037-0.03,7.556-0.003
		c2.089,0.022,3.519,1.374,3.672,3.449c0.185,2.48,0.331,4.965,0.488,7.35c2.053,0.913,4.036,1.81,6.036,2.662
		c0.18,0.075,0.551-0.082,0.729-0.246c1.547-1.381,3.068-2.789,4.597-4.189c2.102-1.926,3.978-1.899,5.979,0.095
		c1.554,1.546,3.104,3.098,4.649,4.652c1.791,1.802,1.813,3.763,0.084,5.647c-1.44,1.57-2.868,3.16-4.328,4.712
		c-0.339,0.363-0.355,0.628-0.152,1.083c0.763,1.697,1.481,3.413,2.154,5.147c0.185,0.472,0.406,0.61,0.883,0.636
		c2.306,0.124,4.612,0.283,6.918,0.447c1.991,0.141,3.385,1.611,3.403,3.626c0.022,2.519,0.022,5.035,0,7.553
		c-0.019,2.063-1.387,3.499-3.471,3.653c-2.306,0.174-4.608,0.327-6.917,0.455c-0.454,0.023-0.642,0.188-0.808,0.608
		c-0.686,1.729-1.392,3.452-2.161,5.146c-0.227,0.5-0.156,0.776,0.197,1.151c1.46,1.552,2.896,3.13,4.327,4.71
		c1.683,1.854,1.641,3.801-0.123,5.576c-1.649,1.661-3.305,3.316-4.971,4.963c-1.621,1.604-3.627,1.641-5.308,0.113
		c-1.6-1.455-3.216-2.896-4.776-4.388c-0.482-0.463-0.824-0.426-1.384-0.173c-1.64,0.744-3.308,1.427-4.986,2.075
		c-0.434,0.169-0.58,0.367-0.604,0.815c-0.132,2.304-0.284,4.611-0.454,6.918c-0.16,2.117-1.618,3.463-3.741,3.473
		c-2.46,0.004-4.919,0.009-7.379,0c-2.11-0.01-3.563-1.371-3.717-3.496c-0.166-2.307-0.325-4.611-0.451-6.918
		c-0.024-0.469-0.217-0.632-0.631-0.791c-1.676-0.659-3.351-1.332-4.981-2.089c-0.584-0.27-0.918-0.233-1.378,0.203
		c-1.547,1.471-3.137,2.896-4.713,4.331c-1.73,1.573-3.719,1.547-5.376-0.09c-1.664-1.646-3.319-3.298-4.966-4.966
		c-1.755-1.768-1.783-3.715-0.093-5.577c1.454-1.603,2.932-3.182,4.363-4.802c0.175-0.199,0.271-0.646,0.17-0.884
		C87.034,139.83,86.168,137.922,85.266,135.888z M113.274,145.333c9.607,0.016,17.372-7.695,17.401-17.289
		c0.029-9.545-7.673-17.395-17.085-17.412c-9.854-0.023-17.617,7.604-17.626,17.32C95.957,137.562,103.681,145.32,113.274,145.333z"
		/>
</g>
</svg>
