<?xml version="1.0" encoding="utf-8"?>
<!-- Generator: Adobe Illustrator 16.0.4, SVG Export Plug-In . SVG Version: 6.00 Build 0)  -->
<!DOCTYPE svg PUBLIC "-//W3C//DTD SVG 1.1//EN" "http://www.w3.org/Graphics/SVG/1.1/DTD/svg11.dtd">
<svg version="1.1" id="Layer_1" xmlns="http://www.w3.org/2000/svg" xmlns:xlink="http://www.w3.org/1999/xlink" x="0px" y="0px"
	 width="200px" height="200px" viewBox="0 0 200 200" enable-background="new 0 0 200 200" xml:space="preserve">
<path fill="#FFFFFF" d="M148.803,126.061c-14.5-16.666-29-33.332-43.5-50c-2.553-2.934-8.054-2.934-10.607,0
	c-14.5,16.668-29,33.334-43.5,50c-6.317,7.262,4.247,17.918,10.607,10.607c12.732-14.636,25.465-29.271,38.196-43.904
	c12.731,14.635,25.464,29.27,38.196,43.904C144.557,143.979,155.122,133.322,148.803,126.061z"/>
<circle cx="-122.059" cy="90.105" r="90.105"/>
<circle cx="-327.167" cy="99.395" r="90.105"/>
<circle cx="-544.656" cy="99.395" r="90.105"/>
<polyline fill="none" stroke="#FFFFFF" stroke-width="10" stroke-linecap="round" stroke-linejoin="round" stroke-miterlimit="10" points="
	332.332,139.123 378.668,94.344 424.582,139.123 "/>
<g>
	<text transform="matrix(1 0 0 1 -132.8291 -67.002)" fill="#FFFFFF" font-family="'HelveticaNeueLTStd-Th'" font-size="26.2821">TOP</text>
</g>
<path fill="#FFFFFF" d="M-327.466-170.459h-99.891c-3.335,0-6.049,2.779-6.049,6.194v64.358c0,3.415,2.713,6.193,6.049,6.193h99.891
	c3.335,0,6.049-2.778,6.049-6.193v-64.358C-321.417-167.68-324.131-170.459-327.466-170.459z M-330.598-161.278v3.412l-46.8,32.813
	l-46.828-33.195v-3.03H-330.598L-330.598-161.278z M-424.226-102.893v-44.102l44.159,31.302c0.795,0.563,1.725,0.846,2.655,0.846
	c0.922,0,1.844-0.277,2.635-0.832l44.179-30.976v43.762H-424.226z"/>
<g>
	<path fill="none" stroke="#FFFFFF" stroke-width="2.5" stroke-miterlimit="10" d="M-581.807,71.745
		c-1.437-0.095-2.927-0.185-4.416-0.295c-1.24-0.092-2.059-0.964-2.068-2.205c-0.011-1.494-0.011-2.987,0-4.481
		c0.009-1.269,0.832-2.128,2.11-2.217c1.488-0.104,2.977-0.197,4.366-0.289c0.55-1.23,1.081-2.389,1.574-3.563
		c0.058-0.136-0.034-0.404-0.146-0.53c-0.861-0.971-1.743-1.923-2.621-2.88c-0.979-1.069-0.959-2.271,0.068-3.309
		c0.963-0.973,1.929-1.943,2.902-2.906c1.086-1.075,2.263-1.099,3.393-0.073c0.935,0.849,1.87,1.697,2.787,2.564
		c0.241,0.228,0.413,0.264,0.729,0.115c1.104-0.519,2.232-0.989,3.41-1.503c0.094-1.423,0.186-2.93,0.295-4.436
		c0.088-1.213,0.945-2.038,2.162-2.054c1.511-0.02,3.023-0.019,4.534-0.002c1.253,0.014,2.11,0.824,2.203,2.07
		c0.11,1.488,0.199,2.979,0.293,4.41c1.231,0.548,2.42,1.087,3.622,1.597c0.108,0.046,0.329-0.049,0.438-0.146
		c0.927-0.83,1.842-1.675,2.759-2.516c1.261-1.156,2.387-1.139,3.587,0.057c0.932,0.929,1.862,1.859,2.79,2.793
		c1.074,1.081,1.088,2.256,0.051,3.387c-0.865,0.943-1.721,1.896-2.597,2.829c-0.204,0.217-0.214,0.376-0.092,0.649
		c0.457,1.018,0.89,2.048,1.293,3.089c0.11,0.284,0.244,0.366,0.529,0.382c1.384,0.076,2.768,0.17,4.151,0.269
		c1.195,0.085,2.031,0.966,2.042,2.175c0.015,1.512,0.014,3.023,0,4.535c-0.011,1.237-0.833,2.099-2.082,2.192
		c-1.383,0.103-2.767,0.195-4.151,0.272c-0.273,0.015-0.385,0.113-0.484,0.365c-0.411,1.037-0.835,2.071-1.296,3.087
		c-0.136,0.3-0.093,0.465,0.117,0.689c0.877,0.933,1.739,1.88,2.599,2.828c1.009,1.113,0.983,2.281-0.075,3.347
		c-0.99,0.997-1.983,1.99-2.983,2.977c-0.972,0.961-2.176,0.984-3.185,0.067c-0.96-0.873-1.93-1.737-2.867-2.634
		c-0.288-0.276-0.495-0.254-0.831-0.102c-0.983,0.447-1.985,0.855-2.992,1.246c-0.26,0.101-0.348,0.22-0.363,0.488
		c-0.079,1.385-0.17,2.768-0.272,4.151c-0.095,1.271-0.971,2.08-2.245,2.083c-1.476,0.004-2.952,0.006-4.428,0
		c-1.266-0.005-2.138-0.822-2.23-2.098c-0.1-1.383-0.195-2.767-0.271-4.15c-0.015-0.282-0.13-0.379-0.379-0.476
		c-1.005-0.395-2.009-0.798-2.989-1.252c-0.35-0.162-0.551-0.14-0.828,0.123c-0.928,0.882-1.881,1.736-2.828,2.598
		c-1.038,0.945-2.232,0.928-3.225-0.054c-0.999-0.988-1.993-1.98-2.981-2.979c-1.053-1.062-1.07-2.23-0.055-3.347
		c0.873-0.961,1.759-1.909,2.618-2.882c0.106-0.119,0.162-0.388,0.104-0.53C-580.747,74.11-581.267,72.965-581.807,71.745z
		 M-565.001,77.413c5.768,0.009,10.424-4.617,10.443-10.374c0.018-5.727-4.605-10.438-10.253-10.449
		c-5.914-0.012-10.57,4.564-10.575,10.393C-575.393,72.75-570.758,77.403-565.001,77.413z"/>
</g>
<g>
	<path fill="none" stroke="#FFFFFF" stroke-width="3" stroke-miterlimit="10" d="M-554.911,129.214
		c-2.022-0.134-4.12-0.262-6.216-0.415c-1.745-0.13-2.898-1.357-2.911-3.104c-0.016-2.104-0.015-4.206,0-6.309
		c0.013-1.785,1.171-2.996,2.971-3.121c2.095-0.146,4.19-0.279,6.146-0.406c0.774-1.732,1.521-3.363,2.216-5.018
		c0.081-0.189-0.047-0.566-0.206-0.744c-1.211-1.369-2.454-2.709-3.688-4.057c-1.379-1.505-1.351-3.195,0.096-4.658
		c1.356-1.369,2.715-2.736,4.085-4.09c1.529-1.514,3.186-1.548,4.776-0.103c1.315,1.195,2.632,2.388,3.923,3.609
		c0.339,0.32,0.582,0.371,1.026,0.162c1.554-0.731,3.143-1.393,4.8-2.116c0.132-2.003,0.262-4.125,0.416-6.244
		c0.124-1.708,1.331-2.869,3.043-2.891c2.127-0.028,4.256-0.026,6.383-0.003c1.765,0.019,2.971,1.16,3.101,2.913
		c0.155,2.095,0.28,4.194,0.413,6.208c1.732,0.771,3.407,1.529,5.098,2.248c0.152,0.062,0.464-0.069,0.616-0.207
		c1.306-1.167,2.593-2.356,3.884-3.54c1.774-1.627,3.359-1.604,5.049,0.081c1.312,1.307,2.622,2.617,3.927,3.931
		c1.512,1.521,1.532,3.179,0.071,4.771c-1.218,1.326-2.423,2.668-3.656,3.979c-0.287,0.309-0.301,0.53-0.129,0.914
		c0.643,1.436,1.252,2.885,1.82,4.35c0.155,0.398,0.343,0.517,0.746,0.539c1.948,0.104,3.896,0.237,5.843,0.377
		c1.683,0.119,2.859,1.359,2.875,3.062c0.021,2.128,0.02,4.254,0,6.382c-0.015,1.742-1.172,2.955-2.931,3.085
		c-1.947,0.146-3.894,0.276-5.843,0.386c-0.384,0.021-0.542,0.158-0.683,0.514c-0.578,1.461-1.176,2.916-1.824,4.347
		c-0.191,0.423-0.132,0.655,0.165,0.972c1.234,1.312,2.447,2.646,3.658,3.98c1.42,1.566,1.384,3.21-0.105,4.71
		c-1.393,1.403-2.792,2.802-4.199,4.19c-1.369,1.354-3.063,1.387-4.483,0.096c-1.352-1.229-2.717-2.445-4.036-3.707
		c-0.406-0.391-0.696-0.357-1.169-0.145c-1.384,0.629-2.794,1.205-4.212,1.752c-0.366,0.144-0.49,0.311-0.512,0.688
		c-0.11,1.945-0.239,3.896-0.383,5.844c-0.133,1.788-1.367,2.926-3.159,2.934c-2.078,0.004-4.155,0.008-6.233,0
		c-1.783-0.008-3.01-1.157-3.14-2.953c-0.141-1.947-0.274-3.896-0.382-5.844c-0.021-0.396-0.184-0.533-0.533-0.668
		c-1.416-0.559-2.829-1.125-4.208-1.767c-0.493-0.229-0.776-0.196-1.165,0.173c-1.306,1.241-2.649,2.445-3.981,3.657
		c-1.461,1.33-3.142,1.31-4.54-0.076c-1.406-1.391-2.805-2.784-4.196-4.192c-1.482-1.494-1.506-3.14-0.078-4.711
		c1.229-1.354,2.477-2.688,3.686-4.057c0.148-0.169,0.228-0.547,0.144-0.747C-553.419,132.543-554.15,130.932-554.911,129.214z
		 M-531.254,137.191c8.118,0.013,14.674-6.5,14.7-14.604c0.025-8.062-6.482-14.692-14.433-14.708
		c-8.324-0.02-14.879,6.426-14.887,14.63C-545.882,130.628-539.358,137.18-531.254,137.191z"/>
</g>
<path fill="none" stroke="#FFFFFF" stroke-width="4" stroke-miterlimit="10" d="M-282.437,125.252c0,1.241-1.052,2.245-2.35,2.245
	h-84.601c-1.298,0-2.35-1.004-2.35-2.245V71.385c0-1.239,1.052-2.245,2.35-2.245h84.601c1.298,0,2.35,1.005,2.35,2.245V125.252
	L-282.437,125.252z"/>
<polyline fill="none" stroke="#FFFFFF" stroke-width="4" stroke-miterlimit="10" points="-282.594,79.029 -327.087,101.977 
	-371.896,79.029 "/>
</svg>
